#!OML:ASF G:\ViconDB\ViconDB\414\test\team2\shane.ASF
:FULLY-SPECIFIED
:DEGREES
173
root 1.77806 16.4435 -10.4356 -5.37722 -1.69055 -5.18535
lowerback 7.72479 2.28227 5.5361
upperback 4.95153 3.37152 1.52991
thorax 1.03838 1.79405 -1.73462
lowerneck -6.04984 -3.32338 -8.62841
upperneck 12.4962 -3.08606 -3.32757
head 4.86891 -2.10233 0.180966
rclavicle -1.84497e-015 -2.1916e-014
rhumerus -16.0365 1.00918 -46.2135
rradius 112.142
rwrist 155.303
rhand -12.0312 21.7657
rfingers 7.12502
rthumb 14.0269 -7.74105
lclavicle -1.86858e-014 -2.38542e-015
lhumerus -50.2498 -26.2717 101.217
lradius 43.4709
lwrist -15.0197
lhand -38.953 5.73258
lfingers 7.12502
lthumb -11.9583 35.371
rfemur 30.8322 -7.33257 19.7953
rtibia -1.59028e-014
rfoot -19.6848 2.12983
rtoes -14.6356
lfemur -27.3662 14.2056 -9.51052
ltibia 30.6166
lfoot -25.7019 -8.85659
ltoes -13.0512
174
root 1.8034 16.4051 -10.2393 -5.33475 -2.09734 -4.98566
lowerback 7.80509 2.39332 5.3844
upperback 4.95836 3.51414 1.27204
thorax 1.01779 1.86534 -1.92799
lowerneck -6.43555 -3.32325 -8.24646
upperneck 12.1839 -3.13365 -3.0974
head 4.83108 -2.08701 0.185501
rclavicle -3.04513e-014 -1.32689e-014
rhumerus -16.0796 3.09489 -45.7009
rradius 111.816
rwrist 156.098
rhand -14.1542 23.8272
rfingers 7.12502
rthumb 11.9804 -5.80999
lclavicle -1.86858e-014 -2.38542e-015
lhumerus -50.2498 -26.2717 101.217
lradius 43.4709
lwrist -15.0197
lhand -38.953 5.73258
lfingers 7.12502
lthumb -11.9583 35.371
rfemur 31.5017 -6.87631 19.5001
rtibia 3.49861e-014
rfoot -19.5111 1.69944
rtoes -16.1315
lfemur -27.0215 14.5738 -9.84206
ltibia 31.1271
lfoot -25.203 -8.35073
ltoes -12.8561
175
root 1.81963 16.3721 -10.0327 -5.29072 -2.5564 -4.79307
lowerback 7.87035 2.54483 4.93071
upperback 4.9221 3.69204 1.15907
thorax 0.932535 1.943 -1.80811
lowerneck -6.91066 -3.29823 -8.45795
upperneck 12.1822 -3.11453 -2.40347
head 4.92266 -2.04927 0.427094
rclavicle -4.27387e-014 1.16786e-014
rhumerus -16.1748 4.36907 -45.0145
rradius 110.302
rwrist 153.385
rhand -15.2315 20.1655
rfingers 7.12502
rthumb 10.9414 -9.52941
lclavicle -1.86858e-014 -2.38542e-015
lhumerus -50.2498 -26.2717 101.217
lradius 43.4709
lwrist -15.0197
lhand -38.953 5.73258
lfingers 7.12502
lthumb -11.9583 35.371
rfemur 32.2151 -6.3714 19.2281
rtibia 8.5875e-014
rfoot -19.1822 1.50177
rtoes -16.4364
lfemur -26.4821 14.8234 -10.0963
ltibia 31.6767
lfoot -24.727 -7.95379
ltoes -13.21
176
root 1.84503 16.3454 -9.821 -5.18927 -3.00708 -4.70682
lowerback 7.83514 2.66724 4.79846
upperback 4.87045 3.84531 0.976182
thorax 0.911947 2.018 -1.93178
lowerneck -7.36461 -3.27324 -8.38271
upperneck 12.3028 -3.09142 -1.9972
head 5.03869 -2.01666 0.534542
rclavicle 8.87077e-015 1.49089e-014
rhumerus -16.4365 5.84096 -44.641
rradius 110.513
rwrist 155.279
rhand -15.4095 18.4122
rfingers 7.12502
rthumb 10.7698 -11.2917
lclavicle -1.86858e-014 -2.38542e-015
lhumerus -50.2498 -26.2717 101.217
lradius 43.4709
lwrist -15.0197
lhand -38.953 5.73258
lfingers 7.12502
lthumb -11.9583 35.371
rfemur 32.8223 -5.89105 19.0794
rtibia 0
rfoot -18.5843 1.14939
rtoes -17.7862
lfemur -25.9689 14.5787 -10.1337
ltibia 32.2782
lfoot -24.3348 -7.94638
ltoes -13.3334
177
root 1.87356 16.3299 -9.60294 -5.06509 -3.45393 -4.76666
lowerback 7.82386 2.80626 4.82346
upperback 4.77055 4.03359 0.863064
thorax 0.837659 2.1109 -2.07587
lowerneck -7.82251 -3.25856 -8.37746
upperneck 12.5396 -3.06113 -1.66432
head 5.19244 -1.99062 0.630334
rclavicle 9.06955e-015 -7.95139e-016
rhumerus -17.0119 6.42644 -44.4472
rradius 111.099
rwrist 156.494
rhand -13.8353 16.5666
rfingers 7.12502
rthumb 12.2879 -13.0524
lclavicle -1.86858e-014 -2.38542e-015
lhumerus -50.2498 -26.2717 101.217
lradius 43.4709
lwrist -15.0197
lhand -38.953 5.73258
lfingers 7.12502
lthumb -11.9583 35.371
rfemur 33.3979 -5.41841 19.0572
rtibia -3.18055e-014
rfoot -17.7774 0.917784
rtoes -19.3691
lfemur -25.5342 15.0292 -10.1965
ltibia 32.7831
lfoot -23.7857 -9.4038
ltoes -12.9147
178
root 1.90672 16.3351 -9.37591 -4.95349 -3.7618 -4.73306
lowerback 7.75491 2.87345 4.80323
upperback 4.70559 4.11915 0.682123
thorax 0.826486 2.1545 -2.2539
lowerneck -8.31658 -3.25666 -8.18386
upperneck 12.8118 -3.05633 -1.44502
head 5.35908 -1.97554 0.658705
rclavicle 1.31695e-014 1.59028e-015
rhumerus -17.4856 6.26863 -44.4373
rradius 112.066
rwrist 157.684
rhand -14.0791 14.0983
rfingers 7.12502
rthumb 12.0528 -15.5346
lclavicle -1.86858e-014 -2.38542e-015
lhumerus -50.2498 -26.2717 101.217
lradius 43.4709
lwrist -15.0197
lhand -38.953 5.73258
lfingers 7.12502
lthumb -11.9583 35.371
rfemur 33.9937 -5.03266 18.8401
rtibia -2.8625e-014
rfoot -16.7414 1.0186
rtoes -19.9616
lfemur -25.218 14.5931 -10.2404
ltibia 33.2671
lfoot -22.2982 -10.6195
ltoes -12.2691
179
root 1.9454 16.3507 -9.149 -4.79784 -3.95454 -4.72841
lowerback 7.7383 2.88132 4.78594
upperback 4.56014 4.13183 0.612759
thorax 0.6893 2.15571 -2.32108
lowerneck -8.60732 -3.12116 -8.33243
upperneck 13.0434 -2.85542 -1.16531
head 5.48019 -1.87402 0.77924
rclavicle 4.16205e-014 1.25234e-014
rhumerus -17.9792 5.04418 -44.5686
rradius 113.186
rwrist 158.581
rhand -14.2375 12.5466
rfingers 7.12502
rthumb 11.9001 -17.0952
lclavicle -1.86858e-014 -2.38542e-015
lhumerus -50.2498 -26.2717 101.217
lradius 43.4709
lwrist -15.0197
lhand -38.953 5.73258
lfingers 7.12502
lthumb -11.9583 35.371
rfemur 34.4968 -4.74324 18.6007
rtibia 9.54166e-015
rfoot -15.3208 1.22828
rtoes -21.6824
lfemur -25.0853 13.4912 -10.1313
ltibia 33.6904
lfoot -20.1043 -10.4395
ltoes -11.035
180
root 1.98162 16.3632 -8.92187 -4.71627 -3.89946 -4.77186
lowerback 7.77658 2.78467 4.80181
upperback 4.40435 4.01127 0.534644
thorax 0.504148 2.08976 -2.41153
lowerneck -8.70619 -2.95545 -8.23106
upperneck 13.3467 -2.61212 -1.26879
head 5.58085 -1.76731 0.746154
rclavicle -9.39258e-015 1.0138e-014
rhumerus -18.5102 3.87762 -45.1683
rradius 114.577
rwrist 159.153
rhand -13.5406 11.6484
rfingers 7.12502
rthumb 12.5721 -17.9533
lclavicle -1.86858e-014 -2.38542e-015
lhumerus -50.2498 -26.2717 101.217
lradius 43.4709
lwrist -15.0197
lhand -38.953 5.73258
lfingers 7.12502
lthumb -11.9583 35.371
rfemur 35.0696 -4.69876 18.3771
rtibia 5.08889e-014
rfoot -13.6478 1.4814
rtoes -23.9653
lfemur -24.7488 11.8498 -9.92621
ltibia 34.117
lfoot -18.4736 -10.0137
ltoes -9.99854
181
root 2.01498 16.3812 -8.69384 -4.70364 -3.71305 -4.28928
lowerback 7.80912 2.64799 4.13713
upperback 4.28602 3.79092 0.379675
thorax 0.309941 1.96348 -2.19501
lowerneck -9.14495 -2.72085 -8.21349
upperneck 14.1411 -2.22242 -1.30572
head 5.89272 -1.60562 0.752637
rclavicle 4.27387e-015 -6.75868e-015
rhumerus -19.0371 2.10356 -45.733
rradius 115.806
rwrist 158.81
rhand -14.0788 10.4217
rfingers 7.12502
rthumb 12.0532 -19.2111
lclavicle -1.86858e-014 -2.38542e-015
lhumerus -50.2498 -26.2717 101.217
lradius 43.4709
lwrist -15.0197
lhand -38.953 5.73258
lfingers 7.12502
lthumb -11.9583 35.371
rfemur 35.6245 -4.67242 17.4787
rtibia -3.18055e-015
rfoot -11.4482 2.12459
rtoes -24.3795
lfemur -24.2276 10.3935 -10.4518
ltibia 34.4993
lfoot -17.149 -9.45302
ltoes -9.39689
